<svg xmlns="http://www.w3.org/2000/svg" width="1024" height="1024" viewBox="0.0 0.0 1024.0 1024.0"><g id="others"><path id="63" d="M 751.797,536.576 C 751.652,536.342 754.341,536 757.774,535.817 C 768.100,535.265 776.184,533.045 785.494,528.208 C 792.193,524.726 796.520,521.472 802.131,515.695 C 807.949,509.704 810.375,506.411 813.691,500 C 819.884,488.025 822.488,474.591 821.037,462.108 C 820.278,455.579 819.510,452.610 816.746,445.500 C 812.865,435.515 807.010,426.824 799.633,420.091 C 784.993,406.729 768.707,400.822 749.981,402.082 C 737.159,402.943 727.111,406.443 715.894,413.954 C 701.492,423.599 691.377,438.945 687.686,456.750 C 686.467,462.628 686.444,476.306 687.643,482.303 C 689.882,493.517 695.912,505.332 703.758,513.879 C 712.685,523.606 726.049,531.482 738.338,534.259 C 743.604,535.448 745.115,536 743.108,536 C 740.676,536 735.732,534.682 729.010,532.240 C 725.399,530.928 717.015,526.506 713.500,524.059 C 711.712,522.815 707.884,519.424 704.992,516.524 C 698.129,509.639 695.470,505.749 691.054,496.132 C 688.392,490.334 687.181,486.160 686.240,479.538 C 684.181,465.041 686.630,450.361 693.170,438 C 698.559,427.814 703.995,421.281 711.991,415.382 C 718.897,410.286 722.653,408.264 732.250,404.471 C 734.136,403.726 741.751,402.059 746,401.462 C 748.337,401.133 753.560,400.889 757.606,400.918 C 763.756,400.964 765.805,401.187 770.106,402.274 C 776.130,403.798 780.491,405.446 785,407.904 C 788.019,409.550 789.266,410.326 794.058,413.538 C 799.510,417.192 810.168,428.920 812.862,434.226 C 813.553,435.587 814.542,437.274 815.059,437.976 C 816.761,440.281 820.397,451.113 821.751,457.911 C 824.843,473.431 819.862,495.648 810.507,508.065 C 806.198,513.784 797.850,522.111 793.413,525.115 C 789.604,527.694 778.333,533.500 777.135,533.500 C 776.858,533.500 775.218,533.951 773.492,534.503 C 767.842,536.308 752.535,537.770 751.797,536.576" stroke="#FFFEE3" fill="#FFFEE3" stroke-width="1" />
  <path id="62" d="M 250.038,418.796 C 249.577,418.240 249.786,417.549 251.035,415.521 C 253.036,412.269 252.697,411.765 250.535,414.776 C 249.637,416.027 248.643,416.961 248.326,416.851 C 247.425,416.539 247.706,407.769 248.731,404.236 C 250.752,397.264 256.424,391.955 264.750,389.240 C 269.303,387.755 277.844,386.644 278,388.360 C 278,387.649 277.634,387.565 275.625,387.814 C 270.840,388.408 264.491,389.975 261.904,391.200 C 255.632,394.170 250.814,399.709 249.266,405.730 C 248.475,408.809 248.213,415.002 248.875,414.998 C 249.082,414.996 250.366,413.365 251.731,411.373 C 254.657,407.099 257.990,403.403 260.700,401.424 C 263.892,399.094 263.752,399.771 260.172,403.983 C 256.427,408.389 250.793,417.261 253.500,419 C 251.574,419.617 250.675,419.563 250.038,418.796" stroke="#F3F7EE" fill="#F3F7EE" stroke-width="1" />
  <path id="62" d="M 271.442,410.580 C 271.998,409.800 272.838,408.844 273.308,408.455 C 274.082,407.817 274.112,407.845 273.623,408.750 C 273.014,409.875 271.101,412 270.697,412 C 270.551,412 270.887,411.361 271.442,410.580" stroke="#F3F7EE" fill="#F3F7EE" stroke-width="1" />
  </g><g id="juzum"><path id="25" d="M 372,517.361 C 372,510.279 371.380,511.624 378.959,502.250 C 381.850,498.675 389.715,488.887 396.437,480.500 C 403.159,472.113 409.636,464.089 410.829,462.671 C 412.023,461.252 413,459.829 413,459.510 C 413,459.075 407.949,458.969 393,459.089 C 393,459.089 373,459.250 373,459.250 C 373,459.250 373,451.375 373,451.375 C 373,451.375 373,443.500 373,443.500 C 373,443.500 406,443.500 406,443.500 C 406,443.500 439,443.500 439,443.500 C 439,443.500 439,449.939 439,449.939 C 439,455.271 438.861,456.493 438.188,457.051 C 437.741,457.422 430.231,466.731 421.498,477.738 C 412.765,488.745 403.769,500 401.505,502.750 C 401.505,502.750 397.391,507.750 397.391,507.750 C 397.391,507.750 419.445,507.880 419.445,507.880 C 419.445,507.880 441.500,508.010 441.500,508.010 C 441.500,508.010 441.500,515.755 441.500,515.755 C 441.500,515.755 441.500,523.500 441.500,523.500 C 441.500,523.500 406.750,523.500 406.750,523.500 C 406.750,523.500 372,523.500 372,523.500 C 372,523.500 372,517.361 372,517.361" stroke="#36383C" fill="#36383C" stroke-width="1" />
  <path id="25" d="M 314.236,524.979 C 305.540,523.842 299.142,521.026 294.118,516.125 C 288.296,510.446 285.483,504.173 284.438,494.546 C 283.926,489.825 283.939,488.847 284.515,488.490 C 285.036,488.168 285.171,486.934 285.068,483.408 C 284.921,478.303 284.923,478.736 284.972,468.750 C 285,462.928 285.908,444.977 286.190,444.655 C 286.236,444.603 287.450,444.506 288.887,444.440 C 290.325,444.375 291.500,444.137 291.500,443.911 C 291.500,443.685 294.063,443.500 297.197,443.500 C 302.075,443.500 302.940,443.621 303.216,444.342 C 303.394,444.805 303.504,455.887 303.461,468.967 C 303.404,486.322 303.548,493.356 303.992,494.991 C 305.422,500.252 308.531,504.245 313,506.559 C 314.931,507.559 315.994,507.726 320.500,507.738 C 324.966,507.748 326.140,507.574 328.363,506.568 C 331.557,505.125 334.646,501.873 336.420,498.087 C 336.420,498.087 337.750,495.250 337.750,495.250 C 337.750,495.250 338,469.500 338,469.500 C 338,469.500 338.250,443.750 338.250,443.750 C 338.250,443.750 347.875,443.614 347.875,443.614 C 347.875,443.614 357.500,443.478 357.500,443.478 C 357.500,443.478 357.500,468.173 357.500,468.173 C 357.500,488.093 357.352,493.717 356.735,497.255 C 353.970,513.111 342.757,523.023 325.392,524.959 C 320.036,525.556 318.668,525.558 314.236,524.979" stroke="#36383C" fill="#36383C" stroke-width="1" />
  <path id="25" d="M 219.890,524.509 C 215.256,523.333 211.287,521.398 207.246,518.342 C 203.477,515.493 199.826,511.771 200.073,511.031 C 200.375,510.123 208.204,501.055 208.710,501.026 C 209.418,499.889 212.957,499.889 212.530,500.332 C 212.685,500.287 213.564,501.107 214.483,502.154 C 218.187,506.373 223.058,508.500 229.016,508.500 C 232.747,508.500 234.869,507.909 237.619,506.102 C 239.814,504.661 242.274,501.147 243.094,498.279 C 243.514,496.808 243.637,487.065 243.538,462.819 C 243.411,431.265 243.454,429.293 244.315,427.694 C 244.315,427.694 245.227,426 245.227,426 C 245.227,426 253.323,426 253.323,426 C 257.776,426 261.781,425.861 262.224,425.690 C 262.962,425.408 263.018,428.570 262.881,463.065 C 262.716,504.726 262.867,502.678 259.404,509.964 C 257.312,514.365 251.935,519.760 247.500,521.905 C 242.328,524.408 239.009,525.091 231,525.299 C 225.009,525.455 223.080,525.317 219.890,524.509" stroke="#36383C" fill="#36383C" stroke-width="1" />
  <path id="25" d="M 479.402,524.041 C 472.703,522.585 468.022,520.086 463.517,515.561 C 457.214,509.231 454.288,501.801 454.436,492.500 C 454.697,476.012 454.594,446.027 454.271,444.864 C 454.271,444.864 453.886,443.478 453.886,443.478 C 453.886,443.478 463.568,443.614 463.568,443.614 C 463.568,443.614 473.250,443.750 473.250,443.750 C 473.250,443.750 473.519,469 473.519,469 C 473.719,487.721 473.956,494.767 474.438,496.250 C 475.430,499.305 477.233,502.143 479.461,504.156 C 482.739,507.117 484.519,507.678 490.750,507.716 C 495.598,507.746 496.541,507.606 498.707,506.541 C 503.104,504.377 506.260,500.188 507.481,494.896 C 507.771,493.639 507.981,482.548 507.988,468.125 C 507.988,468.125 508,443.500 508,443.500 C 508,443.500 517.798,443.500 517.798,443.500 C 517.798,443.500 527.596,443.500 527.596,443.500 C 527.596,443.500 527.362,470.625 527.362,470.625 C 527.362,470.625 527.128,497.750 527.128,497.750 C 527.128,497.750 525.553,502.583 525.553,502.583 C 522.112,513.153 514.609,520.276 503.492,523.525 C 498.070,525.111 485.553,525.379 479.402,524.041" stroke="#36383C" fill="#36383C" stroke-width="1" />
  <path id="25" d="M 496.500,548.250 C 496.500,548.114 497.548,546.651 498.830,545 C 498.830,545 501.161,542 501.161,542 C 501.161,542 504.408,542 504.408,542 C 504.408,542 507.655,542 507.655,542 C 507.655,542 506.719,543.125 506.719,543.125 C 506.205,543.744 504.886,545.206 503.788,546.375 C 501.927,548.356 501.613,548.500 499.146,548.500 C 497.690,548.500 496.500,548.388 496.500,548.250" stroke="#36383C" fill="#36383C" stroke-width="1" />
  <path id="28" d="M 677.500,570.603 C 677.500,569.721 681.933,559.250 682.307,559.250 C 682.658,559.250 687.361,569.629 687.462,570.625 C 687.483,570.831 685.250,571 682.500,571 C 679.750,571 677.500,570.822 677.500,570.603" stroke="#FFFFFF" fill="#FFFFFF" stroke-width="1" />
  <path id="25" d="M 565,567.750 C 565,567.750 565,552 565,552 C 565,552 568.250,552 568.250,552 C 568.250,552 571.500,552 571.500,552 C 571.500,552 571.500,565 571.500,565 C 571.500,565 571.500,578 571.500,578 C 571.500,578 579.500,578 579.500,578 C 579.500,578 587.500,578 587.500,578 C 587.500,578 587.500,580.750 587.500,580.750 C 587.500,580.750 587.500,583.500 587.500,583.500 C 587.500,583.500 576.250,583.500 576.250,583.500 C 576.250,583.500 565,583.500 565,583.500 C 565,583.500 565,567.750 565,567.750" stroke="#36383C" fill="#36383C" stroke-width="1" />
  <path id="25" d="M 295,567.816 C 295,567.816 295,552 295,552 C 295,552 306.500,552 306.500,552 C 306.500,552 318,552 318,552 C 318,552 318,554.488 318,554.488 C 318,554.488 318,556.976 318,556.976 C 318,556.976 309.625,557.113 309.625,557.113 C 309.625,557.113 301.250,557.250 301.250,557.250 C 301.250,557.250 301.250,561.500 301.250,561.500 C 301.250,561.500 301.250,565.750 301.250,565.750 C 301.250,565.750 308.820,565.888 308.820,565.888 C 308.820,565.888 316.390,566.025 316.390,566.025 C 316.390,566.025 316.726,568.261 316.726,568.261 C 316.910,569.490 316.921,570.722 316.751,570.999 C 316.566,571.298 313.426,571.500 308.971,571.500 C 308.971,571.500 301.500,571.500 301.500,571.500 C 301.500,571.500 301.500,577.250 301.500,577.250 C 301.500,577.250 301.500,583 301.500,583 C 301.500,583 300.125,583.005 300.125,583.005 C 299.368,583.009 297.906,583.150 296.875,583.321 C 296.875,583.321 295,583.631 295,583.631 C 295,583.631 295,567.816 295,567.816" stroke="#36383C" fill="#36383C" stroke-width="1" />
  <path id="25" d="M 405,570.258 C 405,570.258 405,556.890 405,556.890 C 405,556.890 399.875,557.070 399.875,557.070 C 399.875,557.070 394.750,557.250 394.750,557.250 C 394.750,557.250 394.599,554.625 394.599,554.625 C 394.599,554.625 394.448,552 394.448,552 C 394.448,552 407.974,552 407.974,552 C 407.974,552 421.500,552 421.500,552 C 421.500,552 421.500,554.733 421.500,554.733 C 421.500,554.733 421.500,557.466 421.500,557.466 C 421.500,557.466 416.125,557.608 416.125,557.608 C 416.125,557.608 410.750,557.750 410.750,557.750 C 410.750,557.750 410.944,570.375 410.944,570.375 C 410.944,570.375 411.138,583 411.138,583 C 411.138,583 409.632,583 409.632,583 C 408.803,583 407.422,583.140 406.562,583.312 C 406.562,583.312 405,583.625 405,583.625 C 405,583.625 405,570.258 405,570.258" stroke="#36383C" fill="#36383C" stroke-width="1" />
  <path id="25" d="M 642.297,582.262 C 638.077,580.527 636,578.649 634,574.756 C 632.415,571.672 632.252,570.969 632.271,567.301 C 632.295,562.568 633.324,559.804 636.277,556.536 C 641.216,551.068 648.844,549.649 656.085,552.848 C 657.644,553.537 659.434,554.648 660.062,555.316 C 660.062,555.316 661.204,556.532 661.204,556.532 C 661.204,556.532 659.141,558.593 659.141,558.593 C 659.141,558.593 657.080,560.656 657.080,560.656 C 657.080,560.656 655.553,559.371 655.553,559.371 C 650.880,555.439 643.161,556.635 639.979,561.785 C 638.514,564.155 638.198,567.834 639.202,570.854 C 641.528,577.857 650.702,580.035 656.310,574.915 C 657.368,573.949 657.372,573.952 659.440,576.301 C 659.440,576.301 661.510,578.653 661.510,578.653 C 661.510,578.653 658.909,580.404 658.909,580.404 C 653.881,583.790 647.697,584.482 642.297,582.262" stroke="#36383C" fill="#36383C" stroke-width="1" />
  <path id="25" d="M 496.334,583.167 C 496.150,582.983 496,575.895 496,567.417 C 496,567.417 496,552 496,552 C 496,552 499.329,552 499.329,552 C 499.329,552 502.659,552 502.659,552 C 502.659,552 502.329,561.831 502.329,561.831 C 502.148,567.237 502,574.325 502,577.581 C 502,577.581 502,583.500 502,583.500 C 502,583.500 499.334,583.500 499.334,583.500 C 497.867,583.500 496.517,583.350 496.334,583.167" stroke="#36383C" fill="#36383C" stroke-width="1" />
  <path id="25" d="M 706,567.750 C 706,567.750 706,552 706,552 C 706,552 709.250,552 709.250,552 C 709.250,552 712.500,552 712.500,552 C 712.500,552 712.500,565 712.500,565 C 712.500,565 712.500,578 712.500,578 C 712.500,578 720.500,578 720.500,578 C 720.500,578 728.500,578 728.500,578 C 728.500,578 728.500,580.750 728.500,580.750 C 728.500,580.750 728.500,583.500 728.500,583.500 C 728.500,583.500 717.250,583.500 717.250,583.500 C 717.250,583.500 706,583.500 706,583.500 C 706,583.500 706,567.750 706,567.750" stroke="#36383C" fill="#36383C" stroke-width="1" />
  <path id="25" d="M 326,567.816 C 326,567.816 326,552 326,552 C 326,552 334.875,552.011 334.875,552.011 C 344.420,552.023 346.212,552.405 348.932,555.013 C 353.248,559.148 352.892,568.117 348.293,571.096 C 347.314,571.731 346.510,572.487 346.506,572.777 C 346.502,573.066 347.765,575.316 349.312,577.777 C 350.858,580.237 352.224,582.511 352.348,582.831 C 352.507,583.241 351.577,583.384 349.161,583.319 C 349.161,583.319 345.750,583.229 345.750,583.229 C 345.750,583.229 342.531,578.365 342.531,578.365 C 342.531,578.365 339.311,573.500 339.311,573.500 C 339.311,573.500 335.906,573.500 335.906,573.500 C 335.906,573.500 332.500,573.500 332.500,573.500 C 332.500,573.500 332.500,578.250 332.500,578.250 C 332.500,578.250 332.500,583 332.500,583 C 332.500,583 331.125,583.005 331.125,583.005 C 330.368,583.009 328.906,583.150 327.875,583.321 C 327.875,583.321 326,583.631 326,583.631 C 326,583.631 326,567.816 326,567.816M 344.294,566.847 C 346.106,564.740 345.997,561.072 344.059,558.903 C 342.646,557.321 342.522,557.287 337.559,557.087 C 337.559,557.087 332.500,556.884 332.500,556.884 C 332.500,556.884 332.500,562.737 332.500,562.737 C 332.500,562.737 332.500,568.591 332.500,568.591 C 332.500,568.591 337.794,568.420 337.794,568.420 C 342.880,568.256 343.135,568.194 344.294,566.847" stroke="#36383C" fill="#36383C" stroke-width="1" />
  <path id="25" d="M 604.500,583.059 C 604.500,582.817 603.702,582.010 602.727,581.267 C 601.300,580.178 600.813,580.032 600.229,580.518 C 599.644,581.003 599.152,580.853 597.698,579.745 C 590.726,574.426 590.218,562.314 596.698,555.835 C 604.641,547.892 619.513,550.491 624.049,560.615 C 625.844,564.620 625.756,570.720 623.847,574.607 C 621.013,580.379 615.620,583.500 608.481,583.500 C 606.292,583.500 604.500,583.302 604.500,583.059M 614.361,576.189 C 619.082,573.471 620.664,567.178 617.839,562.357 C 616.018,559.249 613.365,557.517 609.876,557.157 C 603.279,556.476 598.500,560.768 598.500,567.374 C 598.500,575.856 606.865,580.505 614.361,576.189" stroke="#36383C" fill="#36383C" stroke-width="1" />
  <path id="28" d="M 521.500,570.485 C 521.500,569.303 526.163,558.965 526.527,559.341 C 527.004,559.833 531,569.812 531,570.510 C 531,570.795 529.019,571 526.250,571 C 523.322,571 521.500,570.802 521.500,570.485" stroke="#FFFFFF" fill="#FFFFFF" stroke-width="1" />
  <path id="25" d="M 369.380,582.817 C 366.755,581.840 365.267,580.784 363.793,578.851 C 361.253,575.522 360.871,573.534 360.620,562.375 C 360.620,562.375 360.387,552 360.387,552 C 360.387,552 363.649,552 363.649,552 C 363.649,552 366.913,552 366.913,552 C 366.913,552 367.082,562.375 367.082,562.375 C 367.240,572.120 367.318,572.860 368.380,574.566 C 369.719,576.721 371.885,577.749 375.089,577.750 C 377.851,577.750 379.825,576.512 381.124,573.965 C 381.871,572.500 381.998,570.777 381.999,562.125 C 381.999,562.125 382,552 382,552 C 382,552 385.250,552 385.250,552 C 385.250,552 388.500,552 388.500,552 C 388.500,552 388.500,560.834 388.500,560.834 C 388.500,565.692 388.253,571.082 387.952,572.811 C 387.240,576.898 385.242,580.023 382.199,581.807 C 380.190,582.984 379.154,583.225 375.535,583.357 C 372.738,583.460 370.600,583.272 369.380,582.817" stroke="#36383C" fill="#36383C" stroke-width="1" />
  <path id="25" d="M 665.674,583.122 C 665.862,582.819 672.572,567.316 678.116,554.375 C 678.116,554.375 679.134,552 679.134,552 C 679.134,552 682.567,552 682.567,552 C 684.455,552 686,552.213 686,552.473 C 686,552.733 687.202,555.602 688.671,558.848 C 690.140,562.094 693.178,568.806 695.421,573.763 C 697.664,578.720 699.500,582.938 699.500,583.138 C 699.500,583.337 698.077,583.500 696.337,583.500 C 696.337,583.500 693.174,583.500 693.174,583.500 C 693.174,583.500 691.462,579.875 691.462,579.875 C 691.462,579.875 689.750,576.250 689.750,576.250 C 689.750,576.250 683.750,576.101 683.750,576.101 C 674.928,575.880 674.931,575.880 673.471,579.729 C 672.647,581.902 671.925,583.035 671.250,583.217 C 669.732,583.625 665.409,583.552 665.674,583.122M 687.462,570.625 C 687.361,569.629 682.658,559.250 682.307,559.250 C 681.933,559.250 677.500,569.721 677.500,570.603 C 677.500,570.822 679.750,571 682.500,571 C 685.250,571 687.483,570.831 687.462,570.625" stroke="#36383C" fill="#36383C" stroke-width="1" />
  <path id="25" d="M 509.500,583.050 C 509.500,582.734 510.250,580.962 511.166,579.112 C 512.083,577.263 515.159,570.406 518.003,563.875 C 518.003,563.875 523.173,552 523.173,552 C 523.173,552 526.462,552.002 526.462,552.002 C 526.462,552.002 529.750,552.004 529.750,552.004 C 529.750,552.004 533.210,560.127 533.210,560.127 C 535.112,564.595 538.206,571.604 540.085,575.702 C 541.963,579.802 543.500,583.205 543.500,583.265 C 543.500,583.326 542.010,583.375 540.188,583.375 C 540.188,583.375 536.877,583.375 536.877,583.375 C 536.877,583.375 535.173,579.688 535.173,579.688 C 535.173,579.688 533.470,576 533.470,576 C 533.470,576 526.233,576 526.233,576 C 526.233,576 518.996,576 518.996,576 C 518.996,576 517.431,579.500 517.431,579.500 C 515.960,582.792 515.769,583 514.245,583 C 513.354,583 511.922,583.140 511.062,583.312 C 510.037,583.518 509.500,583.428 509.500,583.050M 531,570.510 C 531,569.812 527.004,559.833 526.527,559.341 C 526.163,558.965 521.500,569.303 521.500,570.485 C 521.500,570.802 523.322,571 526.250,571 C 529.019,571 531,570.795 531,570.510" stroke="#36383C" fill="#36383C" stroke-width="1" />
  <path id="25" d="M 460.991,583.125 C 460.987,582.919 460.928,575.831 460.861,567.375 C 460.861,567.375 460.738,552 460.738,552 C 460.738,552 469.808,552 469.808,552 C 479.399,552 480.780,552.253 483.688,554.540 C 487.672,557.675 488.143,565.964 484.557,569.838 C 483.838,570.615 482.700,571.606 482.027,572.043 C 482.027,572.043 480.805,572.835 480.805,572.835 C 480.805,572.835 484.240,577.913 484.240,577.913 C 486.130,580.706 487.580,583.055 487.463,583.133 C 487.346,583.211 485.668,583.196 483.734,583.100 C 483.734,583.100 480.219,582.927 480.219,582.927 C 480.219,582.927 477.484,578.225 477.484,578.225 C 477.484,578.225 474.750,573.523 474.750,573.523 C 474.750,573.523 470.875,573.511 470.875,573.511 C 470.875,573.511 467,573.500 467,573.500 C 467,573.500 467,578.500 467,578.500 C 467,578.500 467,583.500 467,583.500 C 467,583.500 464,583.500 464,583.500 C 462.350,583.500 460.996,583.331 460.991,583.125M 477.130,567.972 C 479.483,567.319 480.642,565.602 480.703,562.678 C 480.743,560.729 480.526,560.218 479.117,558.959 C 477.533,557.543 477.327,557.500 472.242,557.500 C 472.242,557.500 467,557.500 467,557.500 C 467,557.500 467,563 467,563 C 467,563 467,568.500 467,568.500 C 467,568.500 471.125,568.497 471.125,568.497 C 473.394,568.495 476.096,568.260 477.130,567.972" stroke="#36383C" fill="#36383C" stroke-width="1" />
  <path id="8" d="M 332.500,562.737 C 332.500,562.737 332.500,556.884 332.500,556.884 C 332.500,556.884 337.559,557.087 337.559,557.087 C 342.522,557.287 342.646,557.321 344.059,558.903 C 345.997,561.072 346.106,564.740 344.294,566.847 C 343.135,568.194 342.880,568.256 337.794,568.420 C 337.794,568.420 332.500,568.591 332.500,568.591 C 332.500,568.591 332.500,562.737 332.500,562.737" stroke="#FFFFFF" fill="#FFFFFF" stroke-width="1" />
  <path id="28" d="M 605.279,577.269 C 600.760,575.625 598.500,572.324 598.500,567.374 C 598.500,560.768 603.279,556.476 609.876,557.157 C 617.412,557.935 621.648,566.144 617.854,572.619 C 615.423,576.767 609.707,578.881 605.279,577.269" stroke="#FFFFFF" fill="#FFFFFF" stroke-width="1" />
  <path id="28" d="M 467,563 C 467,563 467,557.500 467,557.500 C 467,557.500 472.242,557.500 472.242,557.500 C 477.327,557.500 477.533,557.543 479.117,558.959 C 480.526,560.218 480.743,560.729 480.703,562.678 C 480.609,567.187 478.459,568.492 471.125,568.497 C 471.125,568.497 467,568.500 467,568.500 C 467,568.500 467,563 467,563" stroke="#FFFFFF" fill="#FFFFFF" stroke-width="1" />
  <path id="60" d="M 527.183,484.750 C 527.184,482 527.268,480.939 527.369,482.392 C 527.471,483.845 527.470,486.095 527.367,487.392 C 527.264,488.689 527.181,487.500 527.183,484.750" stroke="#313134" fill="#313134" stroke-width="1" />
  <path id="25" d="M 428.329,575.875 C 427.916,566.827 427.907,555.590 428.312,553.562 C 428.312,553.562 428.625,552 428.625,552 C 428.625,552 440.062,552 440.062,552 C 440.062,552 451.500,552 451.500,552 C 451.500,552 451.500,554.500 451.500,554.500 C 451.500,554.500 451.500,557 451.500,557 C 451.500,557 443,557 443,557 C 443,557 434.500,557 434.500,557 C 434.500,557 434.500,560.737 434.500,560.737 C 434.500,560.737 434.500,564.474 434.500,564.474 C 434.500,564.474 442.125,564.612 442.125,564.612 C 442.125,564.612 449.750,564.750 449.750,564.750 C 449.750,564.750 449.750,567.250 449.750,567.250 C 449.750,567.250 449.750,569.750 449.750,569.750 C 449.750,569.750 442.125,569.888 442.125,569.888 C 442.125,569.888 434.500,570.026 434.500,570.026 C 434.500,570.026 434.500,574.013 434.500,574.013 C 434.500,574.013 434.500,578 434.500,578 C 434.500,578 443.250,578 443.250,578 C 443.250,578 452,578 452,578 C 452,578 452,580.500 452,580.500 C 452,580.500 452,583 452,583 C 452,583 440.328,583 440.328,583 C 440.328,583 428.656,583 428.656,583 C 428.656,583 428.329,575.875 428.329,575.875" stroke="#36383C" fill="#36383C" stroke-width="1" />
  <path id="60" d="M 284.120,466.125 C 284.120,466.125 284.250,443.750 284.250,443.750 C 284.250,443.750 287.875,443.603 287.875,443.603 C 289.868,443.522 291.500,443.651 291.500,443.889 C 291.500,444.127 290.325,444.375 288.887,444.440 C 287.450,444.506 286.236,444.603 286.190,444.655 C 286.144,444.707 285.859,448.575 285.556,453.250 C 285.032,461.343 284.805,472.455 285.021,479.500 C 285.246,486.861 285.151,488.500 284.495,488.500 C 284.161,488.500 284.034,480.946 284.120,466.125" stroke="#313134" fill="#313134" stroke-width="1" />
  <path id="60" d="M 410.683,562.750 C 410.684,560 410.767,558.939 410.869,560.392 C 410.971,561.845 410.969,564.095 410.867,565.392 C 410.764,566.689 410.681,565.500 410.683,562.750" stroke="#313134" fill="#313134" stroke-width="1" />
  <path id="60" d="M 454.031,466.791 C 454.014,454.714 454.156,444.990 454.348,445.182 C 454.875,445.708 455.034,486.339 454.514,487.630 C 454.236,488.322 454.051,480.349 454.031,466.791" stroke="#313134" fill="#313134" stroke-width="1" />
  <path id="50" d="M 601.582,582.236 C 600.664,581.837 600.003,581.242 600.112,580.912 C 600.467,579.846 601.214,579.999 603,581.501 C 604.902,583.101 604.295,583.414 601.582,582.236" stroke="#444548" fill="#444548" stroke-width="1" />
  <path id="60" d="M 619,491.471 C 619,489.578 619.188,488.557 619.500,488.750 C 619.775,488.920 620,490.283 620,491.779 C 620,493.276 619.775,494.500 619.500,494.500 C 619.221,494.500 619,493.157 619,491.471" stroke="#313134" fill="#313134" stroke-width="1" />
  <path id="60" d="M 244.034,426.875 C 244.034,426.875 244,425.500 244,425.500 C 244,425.500 253.125,425.613 253.125,425.613 C 253.125,425.613 262.250,425.725 262.250,425.725 C 262.250,425.725 253.696,425.874 253.696,425.874 C 245.417,426.019 245.125,426.058 244.605,427.137 C 244.081,428.223 244.067,428.217 244.034,426.875" stroke="#313134" fill="#313134" stroke-width="1" />
  <path id="50" d="M 209.899,499.375 C 211.262,498.017 211.607,497.873 212.007,498.500 C 212.269,498.913 212.488,499.558 212.493,499.936 C 212.499,500.493 212.357,500.503 211.740,499.992 C 211.121,499.478 210.814,499.514 210.076,500.181 C 208.401,501.697 208.252,501.017 209.899,499.375" stroke="#444548" fill="#444548" stroke-width="1" />
  <path id="25" d="M 548,483.500 C 548,483.500 548,443.500 548,443.500 C 548,443.500 557.250,443.500 557.250,443.500 C 557.250,443.500 566.500,443.500 566.500,443.500 C 566.500,443.500 566.500,448.416 566.500,448.416 C 566.500,451.120 566.630,453.464 566.789,453.623 C 566.949,453.783 568.580,452.387 570.414,450.523 C 576.025,444.822 582.484,442.346 591.614,442.396 C 596.977,442.425 600.549,443.253 604.994,445.497 C 608.508,447.271 612.638,450.953 614.306,453.800 C 614.306,453.800 615.586,455.985 615.586,455.985 C 615.586,455.985 617.750,453.118 617.750,453.118 C 621.258,448.468 625.937,445.288 632,443.432 C 635.049,442.498 636.872,442.288 641.750,442.305 C 647.109,442.324 648.213,442.488 652.082,443.839 C 661.840,447.246 668.170,454.255 671.127,464.928 C 672.134,468.560 672.196,470.110 672.380,496.125 C 672.380,496.125 672.575,523.500 672.575,523.500 C 672.575,523.500 662.812,523.500 662.812,523.500 C 662.812,523.500 653.051,523.500 653.051,523.500 C 653.051,523.500 652.899,497.875 652.899,497.875 C 652.750,472.654 652.730,472.207 651.625,469.476 C 650.302,466.203 647.284,462.976 644.060,461.388 C 642.101,460.423 640.952,460.250 636.500,460.250 C 630.581,460.250 628.804,460.885 625.367,464.231 C 621.359,468.132 620,472.772 620,482.554 C 620,486.764 619.823,488.950 619.500,488.750 C 619.188,488.557 619,489.578 619,491.471 C 619,493.157 619.221,494.500 619.500,494.500 C 619.822,494.500 620,499.666 620,509 C 620,509 620,523.500 620,523.500 C 620,523.500 610.288,523.500 610.288,523.500 C 610.288,523.500 600.575,523.500 600.575,523.500 C 600.575,523.500 600.524,498.556 600.524,498.556 C 600.468,471.668 600.388,470.705 597.800,466.290 C 596.322,463.767 593.065,461.343 590.018,460.497 C 589.045,460.226 586.509,460.005 584.380,460.003 C 575.098,459.997 569.139,465.358 567.431,475.250 C 567.024,477.605 566.814,486.070 566.788,501.125 C 566.788,501.125 566.750,523.500 566.750,523.500 C 566.750,523.500 557.375,523.500 557.375,523.500 C 557.375,523.500 548,523.500 548,523.500 C 548,523.500 548,483.500 548,483.500" stroke="#36383C" fill="#36383C" stroke-width="1" />
</g><g id="orange slice"><path id="63" d="M 743.500,528.773 C 725.070,525.727 708.346,513.591 699.813,497.070 C 694.566,486.909 692.727,478.697 693.152,467.305 C 693.478,458.532 694.318,454.207 697.066,447.157 C 704.983,426.841 723.381,412.171 744.952,408.976 C 749.936,408.238 759.867,408.616 765.989,409.777 C 787.156,413.793 805.473,430.465 812.170,451.813 C 816.009,464.049 815.866,475.547 811.721,487.937 C 808.505,497.553 804.497,503.892 796.744,511.628 C 789.846,518.510 781.793,523.322 771.904,526.473 C 764.080,528.966 751.053,530.020 743.500,528.773M 773.027,525.004 C 783.500,521.437 791.556,516.226 798.280,508.668 C 804.232,501.978 806.775,497.674 809.902,489 C 813.063,480.230 813.569,477.537 813.576,469.485 C 813.581,462.524 812.928,458.599 810.498,450.995 C 809.303,447.252 804.809,438.184 803.447,436.764 C 801.684,435.974 803.481,441.577 801.645,439 C 801.377,437.975 799.500,437.568 799.500,438.535 C 799.500,438.829 800.136,440.010 800.913,441.160 C 802.909,444.111 805.855,450.713 806.745,454.230 C 808.611,461.596 807.087,466.059 802.043,469.428 C 804.239,470.157 806.183,472.116 807.253,474.680 C 807.888,476.198 807.986,477.477 807.716,480.680 C 807.528,482.918 807.212,484.975 807.015,485.250 C 806.818,485.525 806.043,487.325 805.291,489.250 C 802.827,495.564 799.660,500.255 796.529,502.232 C 794.942,503.233 794.372,503.330 792.136,502.977 C 790.723,502.753 789.081,502.311 788.488,501.993 C 787.140,501.272 762.567,476.866 761.379,475.068 C 760.202,473.289 760.275,472.389 761.726,470.823 C 762.743,469.726 763.404,469.494 765.601,469.465 C 767.543,469.439 767.983,469.315 767.250,469 C 766.700,468.764 765.539,468.555 764.669,468.535 C 761.965,468.475 759.412,464.526 761.146,463.086 C 761.658,462.661 761.754,462.885 761.606,464.149 C 761.468,465.337 761.721,466.031 762.585,466.841 C 762.585,466.841 763.750,467.930 763.750,467.930 C 763.750,467.930 782.830,467.590 782.830,467.590 C 782.830,467.590 801.909,467.250 801.909,467.250 C 801.909,467.250 803.830,465.702 803.830,465.702 C 806.500,463.548 806.939,461.524 805.865,456.325 C 804.880,451.565 800.523,442.375 797.668,439.041 C 794.522,435.365 790.606,434.481 787.472,436.741 C 786.525,437.425 780.520,443.330 774.129,449.866 C 767.737,456.402 762.643,461.356 762.808,460.875 C 763.170,459.817 762.589,459.776 761.279,460.766 C 759.461,462.142 755.659,461.164 754.515,459.027 C 754.215,458.466 753.972,453.625 753.933,447.408 C 753.862,436.141 753.199,436.375 752.963,447.750 C 752.963,447.750 752.838,453.750 752.838,453.750 C 752.838,453.750 752.475,449 752.475,449 C 752.275,446.387 752.087,439.120 752.056,432.850 C 751.994,420.228 751.795,419.276 748.851,417.480 C 747.946,416.928 746.350,416.503 745.181,416.502 C 740.683,416.498 728.865,420.935 724.210,424.375 C 721.471,426.400 720.301,428.925 720.740,431.860 C 721.053,433.943 721.707,434.759 729.424,442.682 C 734.015,447.394 738.667,452.238 739.760,453.445 C 743.059,457.084 747.436,460.500 748.798,460.500 C 749.484,460.500 750.597,459.947 751.273,459.272 C 752.072,458.474 752.500,458.289 752.500,458.745 C 752.500,460.577 748.205,461.680 745.891,460.442 C 744.976,459.952 744.894,459.998 745.226,460.817 C 746.492,463.952 746.546,464.422 745.837,466.118 C 745.172,467.709 744.902,467.873 742.433,468.169 C 740.957,468.346 738.443,468.493 736.846,468.495 C 735.248,468.498 734.063,468.697 734.212,468.939 C 734.362,469.180 736.459,469.370 738.873,469.358 C 741.455,469.346 743.740,469.594 744.423,469.959 C 745.985,470.795 747.194,473.702 746.511,474.978 C 746.230,475.504 746,476.005 746,476.092 C 746,476.179 747.166,476.169 748.591,476.070 C 751.293,475.884 752.535,476.651 752.474,478.471 C 752.455,479.041 752.237,478.949 751.663,478.125 C 751.091,477.306 750.385,477.002 749.064,477.007 C 747.359,477.014 746.462,477.807 734.173,490.166 C 719.941,504.477 719.104,505.629 720.497,508.994 C 722.405,513.600 735.663,520.265 744.113,520.866 C 744.113,520.866 747.976,521.141 747.976,521.141 C 747.976,521.141 749.912,519.196 749.912,519.196 C 749.912,519.196 751.846,517.250 751.846,517.250 C 751.846,517.250 752.186,500.999 752.186,500.999 C 752.372,492.061 752.369,483.961 752.178,482.999 C 751.874,481.464 751.926,481.327 752.600,481.882 C 753.268,482.430 753.404,482.202 753.635,480.148 C 754.060,476.377 757.092,474.479 760.158,476.065 C 760.759,476.375 767.269,482.616 774.625,489.933 C 783.686,498.945 788.174,503.763 788.539,504.868 C 790.183,509.849 784.463,515.372 772.912,519.959 C 771.351,520.579 769.942,521.430 769.781,521.850 C 769.607,522.303 769.107,522.514 768.549,522.368 C 767.454,522.082 766.955,522.375 766.203,523.750 C 765.902,524.300 764.889,525.284 763.953,525.937 C 763.953,525.937 762.250,527.124 762.250,527.124 C 762.250,527.124 765.277,526.868 765.277,526.868 C 766.941,526.727 770.428,525.889 773.027,525.004M 771.500,519.249 C 780.211,516.096 786.204,511.877 786.985,508.351 C 787.841,504.487 787.352,503.822 773.283,489.694 C 761.107,477.467 760.016,476.500 758.399,476.500 C 757.259,476.500 756.326,476.865 755.702,477.556 C 754.800,478.557 754.753,479.587 754.797,497.181 C 754.848,517.500 754.866,517.630 757.865,520.011 C 759.116,521.005 759.661,521.087 763.500,520.859 C 766.343,520.690 768.991,520.157 771.500,519.249M 718.956,500.957 C 720.605,499.951 730.335,490.387 740.846,479.438 C 746.364,473.691 746.704,472.813 744.082,471.093 C 742.954,470.354 740.735,470.230 726.023,470.087 C 716.798,469.998 708.257,470.074 707.043,470.255 C 704.383,470.654 702.317,472.522 701.578,475.199 C 700.577,478.822 703.694,489.844 707.542,496.288 C 710.584,501.383 715.175,503.261 718.956,500.957M 796.250,500.548 C 800.769,497.978 807.022,483.111 806.383,476.455 C 806.220,474.762 805.761,473.553 804.947,472.670 C 802.568,470.089 801.849,470 783.641,470.005 C 774.351,470.009 765.890,470.153 764.840,470.327 C 762.292,470.748 761.135,472.410 761.976,474.442 C 762.900,476.673 787.672,500.499 789.903,501.303 C 791.981,502.051 794.037,501.807 796.250,500.548M 744.343,466.413 C 745.860,464.988 745.806,463.458 744.168,461.413 C 741.658,458.280 720.751,437.434 719.400,436.716 C 717.601,435.762 714.801,435.810 712.645,436.834 C 708.386,438.854 702.264,451.109 701.646,458.851 C 701.303,463.151 701.986,465.201 704.210,466.558 C 705.644,467.432 707.038,467.497 724.468,467.498 C 742.999,467.500 743.197,467.490 744.343,466.413M 761.133,460.082 C 762.789,458.990 784.312,436.894 785.808,434.750 C 789.258,429.805 786.290,424.823 777.368,420.584 C 768.344,416.298 761.121,415.087 757.747,417.298 C 754.817,419.217 754.764,419.594 754.596,439.419 C 754.461,455.474 754.537,457.731 755.250,458.821 C 756.681,461.004 758.986,461.498 761.133,460.082" stroke="#FFFEE3" fill="#FFFEE3" stroke-width="1" />
  <path id="38" d="M 752.650,532.860 C 752.650,532.860 752.742,529.577 752.742,529.577 C 752.742,529.577 756.246,529.258 756.246,529.258 C 773.551,527.679 786.156,522.192 796.744,511.628 C 804.497,503.892 808.505,497.553 811.721,487.937 C 815.866,475.547 816.009,464.049 812.170,451.813 C 807.135,435.765 795.681,422.296 780.750,414.867 C 773.093,411.057 766.495,409.358 756.893,408.721 C 751.943,408.393 751.573,408.298 752.018,407.466 C 752.283,406.971 752.500,405.564 752.500,404.339 C 752.500,402.231 752.582,402.101 754.054,401.885 C 754.909,401.760 757.890,401.849 760.679,402.085 C 781.068,403.806 800.715,416.603 811.978,435.500 C 814.611,439.918 818.449,449.159 819.712,454.117 C 823.374,468.509 821.129,485.618 813.691,500 C 810.375,506.411 807.949,509.704 802.131,515.695 C 796.520,521.472 792.193,524.726 785.494,528.208 C 776.382,532.943 768.308,535.202 758.370,535.796 C 758.370,535.796 752.559,536.143 752.559,536.143 C 752.559,536.143 752.650,532.860 752.650,532.860" stroke="#FAC81F" fill="#FAC81F" stroke-width="1" />
  <path id="29" d="M 742.750,535.194 C 731.081,533.107 719.866,527.947 710.669,520.433 C 699.117,510.996 690.535,496.784 687.643,482.303 C 686.444,476.306 686.467,462.628 687.686,456.750 C 689.199,449.449 692.365,441.281 696.173,434.848 C 707.062,416.455 727.256,403.793 748.279,402.177 C 748.279,402.177 752.500,401.853 752.500,401.853 C 752.500,401.853 752.500,404.209 752.500,404.209 C 752.500,407.551 751.863,408.498 749.607,408.509 C 742.222,408.543 731.126,411.981 723.015,416.746 C 708.606,425.212 697.774,439.997 694.258,456 C 692.976,461.832 692.690,473.877 693.702,479.387 C 697.283,498.869 709.337,514.717 727.250,523.492 C 733.625,526.615 739.676,528.356 746.796,529.111 C 753.134,529.784 753.207,529.844 752.659,533.843 C 752.659,533.843 752.364,536 752.364,536 C 752.364,536 749.557,535.955 749.557,535.955 C 748.013,535.931 744.950,535.588 742.750,535.194" stroke="#FC7E26" fill="#FC7E26" stroke-width="1" />
  <path id="38" d="M 757.865,520.011 C 754.866,517.630 754.848,517.500 754.797,497.181 C 754.753,479.587 754.800,478.557 755.702,477.556 C 756.326,476.865 757.259,476.500 758.399,476.500 C 760.016,476.500 761.107,477.467 773.283,489.694 C 787.352,503.822 787.841,504.487 786.985,508.351 C 785.857,513.446 772.997,520.294 763.500,520.859 C 759.661,521.087 759.116,521.005 757.865,520.011M 764.821,492.746 C 765.318,491.449 764.553,488.795 762.869,485.976 C 760.147,481.421 758.379,482.217 759.499,487.495 C 760.337,491.443 761.625,493.500 763.259,493.500 C 763.958,493.500 764.662,493.161 764.821,492.746" stroke="#FAC81F" fill="#FAC81F" stroke-width="1" />
  <path id="29" d="M 739.598,520.221 C 733.686,518.630 725.393,514.497 722.412,511.658 C 720.302,509.648 719.742,507.833 720.476,505.382 C 720.986,503.682 723.412,500.986 734.173,490.166 C 746.575,477.693 747.346,477.014 749.107,477.007 C 750.378,477.002 751.106,477.276 751.413,477.875 C 752.288,479.580 752.492,485.940 752.170,501.500 C 752.170,501.500 751.845,517.250 751.845,517.250 C 751.845,517.250 749.981,519.125 749.981,519.125 C 748.238,520.879 747.928,520.998 745.184,520.967 C 743.571,520.949 741.057,520.613 739.598,520.221M 746.433,491.863 C 747.144,490.432 747.721,488.182 747.877,486.238 C 748.119,483.221 748.067,483 747.111,483 C 746.110,483 744.096,485.752 742.611,489.149 C 740.466,494.057 744.074,496.620 746.433,491.863" stroke="#FC7E26" fill="#FC7E26" stroke-width="1" />
  <path id="29" d="M 711.473,500.575 C 707.747,498.185 703.408,489.336 701.774,480.793 C 700.597,474.647 702.451,470.943 707.043,470.255 C 708.257,470.074 716.798,469.998 726.023,470.087 C 740.735,470.230 742.954,470.354 744.082,471.093 C 746.704,472.813 746.364,473.691 740.846,479.438 C 730.335,490.387 720.605,499.951 718.956,500.957 C 716.567,502.413 714.146,502.289 711.473,500.575M 734.895,479.048 C 735.915,478.526 737.289,477.519 737.948,476.813 C 738.981,475.708 739.053,475.416 738.468,474.712 C 737.946,474.082 737.149,473.942 734.994,474.098 C 730.003,474.459 726.711,477.094 728.523,479.277 C 729.369,480.297 732.693,480.178 734.895,479.048" stroke="#FC7E26" fill="#FC7E26" stroke-width="1" />
  <path id="29" d="M 704.210,466.558 C 701.986,465.201 701.303,463.151 701.646,458.851 C 702.264,451.109 708.386,438.854 712.645,436.834 C 714.801,435.810 717.601,435.762 719.400,436.716 C 720.751,437.434 741.658,458.280 744.168,461.413 C 745.806,463.458 745.860,464.988 744.343,466.413 C 743.197,467.490 742.999,467.500 724.468,467.498 C 707.038,467.497 705.644,467.432 704.210,466.558M 738.804,463.289 C 739.581,461.264 735.511,458.454 731.614,458.324 C 728.607,458.224 727.756,459.394 729.492,461.241 C 731.539,463.421 738.192,464.884 738.804,463.289" stroke="#FC7E26" fill="#FC7E26" stroke-width="1" />
  <path id="38" d="M 789.886,501.296 C 788.612,500.837 784.894,497.579 778.136,490.998 C 772.698,485.704 768.106,481.007 767.929,480.560 C 767.754,480.115 766.235,478.435 764.554,476.829 C 762.875,475.224 761.500,473.617 761.500,473.260 C 761.500,472.903 761.930,472.079 762.456,471.430 C 762.456,471.430 763.410,470.250 763.410,470.250 C 763.410,470.250 781.581,470.089 781.581,470.089 C 793.269,469.986 800.382,470.116 801.521,470.454 C 804.295,471.274 806.098,473.499 806.382,476.448 C 807.022,483.111 800.773,497.976 796.250,500.548 C 794.032,501.810 791.981,502.050 789.886,501.296M 779.279,479.279 C 780.042,478.713 780.136,478.365 779.721,477.654 C 778.410,475.410 769.732,472.568 768.365,473.935 C 766.965,475.335 773.658,479.731 777.529,479.955 C 777.958,479.980 778.745,479.676 779.279,479.279" stroke="#FAC81F" fill="#FAC81F" stroke-width="1" />
  <path id="38" d="M 765.128,467.399 C 763.277,466.913 761.775,464.981 762.212,463.649 C 762.660,462.286 788.301,436.500 789.209,436.500 C 789.644,436.500 790,436.275 790,436 C 790,435.284 792.254,435.384 794.172,436.185 C 796.631,437.213 799.218,440.587 802.255,446.731 C 805.271,452.831 806.721,458.068 806.343,461.499 C 806.142,463.319 805.738,464.058 804.225,465.365 C 803.196,466.255 801.655,467.089 800.802,467.221 C 797.875,467.671 766.751,467.827 765.128,467.399M 776.589,462.569 C 779.217,461.442 780.131,460.435 779.913,458.902 C 779.777,457.938 779.408,457.725 777.655,457.598 C 775.014,457.406 772.139,458.168 769.954,459.642 C 768.061,460.918 767.594,462.158 768.567,463.330 C 769.386,464.317 773.397,463.937 776.589,462.569" stroke="#FAC81F" fill="#FAC81F" stroke-width="1" />
  <path id="64" d="M 768.571,463.336 C 767.999,462.647 768.091,462.622 769.396,463.114 C 770.602,463.569 771.500,463.464 774.404,462.531 C 778.200,461.310 779.817,460.048 779.302,458.706 C 778.801,457.401 774.592,458.037 770.890,459.978 C 769.011,460.962 768.067,461.272 768.489,460.764 C 769.930,459.027 773.147,457.834 776.500,457.791 C 779.527,457.752 779.761,457.829 779.913,458.902 C 780.004,459.536 779.782,460.411 779.420,460.846 C 777.626,463.008 769.791,464.806 768.571,463.336" stroke="#FBDA50" fill="#FBDA50" stroke-width="1" />
  <path id="64" d="M 757.178,460.504 C 754.539,459.439 754.500,459.145 754.500,440.289 C 754.500,429.099 754.673,422.973 754.981,423.281 C 755.264,423.563 755.520,430.817 755.606,440.925 C 755.606,440.925 755.750,458.089 755.750,458.089 C 755.750,458.089 756.931,459.045 756.931,459.045 C 758.446,460.271 758.412,460.276 761.162,458.454 C 763.900,456.640 784.667,435.094 785.813,432.877 C 788.255,428.154 782.928,423.229 770.643,418.851 C 763.514,416.310 759.415,416.711 756.746,420.211 C 755.146,422.307 754.583,422.214 755.499,420.003 C 757.659,414.786 765.609,414.998 777.368,420.584 C 786.290,424.823 789.258,429.805 785.808,434.750 C 784.312,436.894 762.789,458.990 761.133,460.082 C 759.624,461.077 758.812,461.163 757.178,460.504" stroke="#FBDA50" fill="#FBDA50" stroke-width="1" />
  <path id="38" d="M 756.931,459.045 C 756.931,459.045 755.750,458.090 755.750,458.090 C 755.750,458.090 755.500,440.170 755.500,440.170 C 755.500,440.170 755.250,422.250 755.250,422.250 C 755.250,422.250 756.718,420.310 756.718,420.310 C 758.689,417.705 760.736,416.905 764.370,417.315 C 768.882,417.825 776.827,420.923 781.822,424.119 C 785.653,426.571 787.256,430.088 785.813,432.877 C 784.667,435.094 763.900,456.640 761.162,458.454 C 758.412,460.276 758.446,460.272 756.931,459.045M 761.600,454.625 C 762.014,454.144 762.963,452.610 763.707,451.217 C 764.794,449.179 765.029,448.153 764.904,445.967 C 764.768,443.555 764.619,443.231 763.583,443.085 C 761.264,442.757 759.792,445.274 759.013,450.897 C 758.605,453.845 759.028,455.500 760.190,455.500 C 760.550,455.500 761.184,455.106 761.600,454.625" stroke="#FAC81F" fill="#FAC81F" stroke-width="1" />
  <path id="63" d="M 736.441,477.346 C 737.636,476.088 738.032,475.300 737.789,474.658 C 737.463,473.797 737.491,473.795 738.320,474.615 C 739.152,475.437 739.135,475.543 737.972,476.786 C 737.300,477.504 736.300,478.325 735.750,478.608 C 735.136,478.926 735.402,478.438 736.441,477.346" stroke="#FFFEE3" fill="#FFFEE3" stroke-width="1" />
  <path id="28" d="M 761.054,491.969 C 759.942,490.139 758.747,484.880 759.186,483.738 C 759.737,482.300 761.206,483.193 762.869,485.976 C 765.513,490.401 765.673,493.500 763.259,493.500 C 762.375,493.500 761.701,493.033 761.054,491.969" stroke="#FFFFFF" fill="#FFFFFF" stroke-width="1" />
  <path id="28" d="M 763.953,525.937 C 764.889,525.284 765.902,524.300 766.203,523.750 C 766.955,522.375 767.454,522.082 768.549,522.368 C 769.107,522.514 769.607,522.303 769.781,521.850 C 769.942,521.430 771.351,520.579 772.912,519.959 C 784.463,515.372 790.183,509.849 788.539,504.868 C 788.174,503.763 783.686,498.945 774.625,489.933 C 767.269,482.616 760.759,476.375 760.158,476.065 C 757.092,474.479 754.060,476.377 753.635,480.148 C 753.409,482.154 753.257,482.421 752.636,481.906 C 752.125,481.481 751.992,480.752 752.194,479.484 C 752.640,476.699 751.746,475.852 748.591,476.070 C 747.166,476.169 746,476.179 746,476.092 C 746,476.005 746.230,475.504 746.511,474.978 C 747.194,473.702 745.985,470.795 744.423,469.959 C 743.740,469.594 741.455,469.346 738.873,469.358 C 736.459,469.370 734.362,469.180 734.212,468.939 C 734.063,468.697 735.248,468.498 736.846,468.495 C 738.443,468.493 740.957,468.346 742.433,468.169 C 744.902,467.873 745.172,467.709 745.837,466.118 C 746.546,464.422 746.492,463.952 745.226,460.817 C 744.894,459.998 744.976,459.952 745.891,460.442 C 747.450,461.276 750.251,461.116 751.436,460.125 C 752.409,459.312 752.516,458.483 752.965,448.318 C 753.231,442.305 753.572,437.262 753.724,437.110 C 753.876,436.957 754,441.611 754,447.450 C 754,453.774 754.208,458.454 754.515,459.027 C 755.659,461.164 759.461,462.142 761.279,460.766 C 763.331,459.214 763.612,460.196 761.750,462.409 C 760.174,464.283 760.182,465.045 761.794,466.962 C 762.716,468.057 763.544,468.510 764.669,468.535 C 765.539,468.555 766.700,468.764 767.250,469 C 767.983,469.315 767.543,469.439 765.601,469.465 C 763.404,469.494 762.743,469.726 761.726,470.823 C 760.275,472.389 760.202,473.289 761.379,475.068 C 762.567,476.866 787.140,501.272 788.488,501.993 C 789.081,502.311 790.723,502.753 792.136,502.977 C 794.372,503.330 794.942,503.233 796.529,502.232 C 799.660,500.255 802.827,495.564 805.291,489.250 C 806.043,487.325 806.818,485.525 807.015,485.250 C 807.212,484.975 807.528,482.918 807.716,480.680 C 807.986,477.477 807.888,476.198 807.253,474.680 C 806.183,472.116 804.239,470.157 802,468.122 C 807.087,466.059 808.611,461.596 806.745,454.230 C 805.855,450.713 802.909,444.111 800.913,441.160 C 800.136,440.010 799.500,438.829 799.500,438.535 C 799.500,437.568 801.377,437.975 801.645,439 C 804.130,442.735 802.174,435.188 803.447,436.764 C 804.809,438.184 809.303,447.252 810.498,450.995 C 812.928,458.599 813.581,462.524 813.576,469.485 C 813.569,478.430 812.457,483.197 807.699,494.671 C 803.560,504.656 792.386,516.195 781.828,521.389 C 776.247,524.135 768.918,526.561 765.277,526.868 C 765.277,526.868 762.250,527.124 762.250,527.124 C 762.250,527.124 763.953,525.937 763.953,525.937" stroke="#FFFFFF" fill="#FFFFFF" stroke-width="1" />
  <path id="28" d="M 742.619,493.919 C 741.829,493.129 741.826,490.946 742.611,489.149 C 744.039,485.880 746.115,483 747.043,483 C 747.862,483 748,483.372 748,485.584 C 748,487.005 747.848,488.015 747.662,487.829 C 747.313,487.480 746.192,490.113 745.568,492.750 C 745.181,494.384 743.679,494.979 742.619,493.919" stroke="#FFFFFF" fill="#FFFFFF" stroke-width="1" />
  <path id="64" d="M 765,478.250 C 763.519,476.751 762.421,475.412 762.558,475.274 C 762.696,475.137 764.019,476.251 765.500,477.750 C 766.981,479.249 768.079,480.588 767.942,480.726 C 767.804,480.863 766.481,479.749 765,478.250" stroke="#FBDA50" fill="#FBDA50" stroke-width="1" />
  <path id="64" d="M 759.077,454.625 C 758.816,454.127 758.788,452.521 759.013,450.897 C 759.792,445.274 761.264,442.757 763.583,443.085 C 764.619,443.231 764.768,443.555 764.904,445.967 C 765.029,448.153 764.794,449.179 763.707,451.217 C 762.078,454.267 761.066,455.500 760.190,455.500 C 759.830,455.500 759.329,455.106 759.077,454.625M 760.809,454.118 C 761.117,453.916 762.087,452.579 762.963,451.149 C 764.278,449.002 764.530,448.127 764.404,446.149 C 764.274,444.135 764.090,443.750 763.250,443.750 C 761.837,443.750 759.975,447.735 759.635,451.486 C 759.371,454.386 759.605,454.909 760.809,454.118" stroke="#FBDA50" fill="#FBDA50" stroke-width="1" />
  <path id="29" d="M 744.651,458.070 C 743.056,456.733 740.855,454.651 739.760,453.445 C 738.667,452.238 734.015,447.394 729.424,442.682 C 721.707,434.759 721.053,433.943 720.740,431.860 C 720.301,428.925 721.471,426.400 724.210,424.375 C 728.865,420.935 740.683,416.498 745.181,416.502 C 747.659,416.505 750.181,417.918 751.157,419.853 C 751.706,420.941 751.933,425.318 752.184,439.644 C 752.184,439.644 752.506,458.039 752.506,458.039 C 752.506,458.039 751.276,459.269 751.276,459.269 C 749.443,461.102 747.947,460.831 744.651,458.070M 748,452.745 C 748,448.366 745.668,443.584 743.869,444.274 C 742.353,444.856 742.283,446.796 743.674,449.640 C 745.868,454.123 748,455.654 748,452.745" stroke="#FC7E26" fill="#FC7E26" stroke-width="1" />
  <path id="28" d="M 731.567,462.699 C 729.467,461.803 728.184,460.108 728.840,459.096 C 730.249,456.918 738.250,459.397 738.250,462.010 C 738.250,463.175 738.088,463.250 735.567,463.255 C 734.091,463.259 732.292,463.008 731.567,462.699" stroke="#FFFFFF" fill="#FFFFFF" stroke-width="1" />
  <path id="28" d="M 759.500,452.582 C 759.500,450.317 760.076,447.988 760.561,448.288 C 760.803,448.437 761,448.238 761,447.847 C 761,447.455 761.481,446.524 762.069,445.776 C 762.891,444.731 763.237,444.570 763.562,445.083 C 764.650,446.800 763.245,450.407 760.423,453.144 C 759.532,454.007 759.500,453.988 759.500,452.582" stroke="#FFFFFF" fill="#FFFFFF" stroke-width="1" />
  <path id="63" d="M 775.069,479.426 C 771.548,478.413 767.337,474.964 768.365,473.935 C 769.732,472.568 778.410,475.410 779.721,477.654 C 780.136,478.365 780.042,478.713 779.279,479.279 C 778.184,480.093 777.472,480.118 775.069,479.426M 778.726,478.540 C 779.178,477.809 776.590,476.065 773.841,475.249 C 768.722,473.729 768.120,474.707 772.539,477.365 C 775.168,478.946 778.127,479.508 778.726,478.540" stroke="#FFFEE3" fill="#FFFEE3" stroke-width="1" />
  <path id="28" d="M 728.523,479.277 C 726.740,477.130 729.934,474.503 734.822,474.098 C 737.034,473.914 737.542,474.027 737.824,474.763 C 738.072,475.410 737.543,476.235 735.861,477.824 C 733.856,479.719 733.272,480 731.341,480 C 730.016,480 728.881,479.709 728.523,479.277" stroke="#FFFFFF" fill="#FFFFFF" stroke-width="1" />
  <path id="28" d="M 769.750,462.500 C 769.261,461.709 769.823,461.171 772.848,459.533 C 775.957,457.849 778.846,457.517 779.334,458.789 C 779.816,460.045 778.293,461.112 774.642,462.077 C 770.676,463.125 770.164,463.170 769.750,462.500" stroke="#FFFFFF" fill="#FFFFFF" stroke-width="1" />
  <path id="64" d="M 762.587,466.843 C 760.277,464.384 760.625,463.857 773.125,450.912 C 785.955,437.626 790,434.051 790,436 C 790,436.275 789.644,436.500 789.209,436.500 C 788.301,436.500 762.660,462.286 762.212,463.649 C 761.779,464.969 763.266,466.904 765.212,467.955 C 764.209,467.985 763.296,467.598 762.587,466.843" stroke="#FBDA50" fill="#FBDA50" stroke-width="1" />
  <path id="63" d="M 734.500,463.476 C 733.942,463.078 734.283,463.022 735.830,463.257 C 737.520,463.514 738.015,463.402 738.473,462.661 C 739.004,461.803 739.029,461.808 738.889,462.750 C 738.779,463.500 738.304,463.783 736.996,463.880 C 736.036,463.952 734.913,463.771 734.500,463.476" stroke="#FFFEE3" fill="#FFFEE3" stroke-width="1" />
  <path id="63" d="M 745.707,492.500 C 745.823,491.812 746.264,490.350 746.688,489.250 C 747.312,487.624 747.458,487.483 747.465,488.500 C 747.470,489.188 747.029,490.650 746.484,491.750 C 745.784,493.164 745.557,493.384 745.707,492.500" stroke="#FFFEE3" fill="#FFFEE3" stroke-width="1" />
  <path id="63" d="M 768.875,462.960 C 768.394,462.680 768,462.257 768,462.022 C 768,461.484 771.835,459.236 773.500,458.799 C 774.188,458.618 773.697,459.036 772.409,459.728 C 769.747,461.157 769.153,461.853 769.929,462.630 C 770.319,463.019 771.282,462.947 773.354,462.370 C 774.938,461.930 776.317,461.650 776.417,461.750 C 776.659,461.993 771.533,463.505 770.534,463.485 C 770.102,463.476 769.356,463.240 768.875,462.960" stroke="#FFFEE3" fill="#FFFEE3" stroke-width="1" />
  <path id="63" d="M 746.287,453.716 C 745.851,453.279 745.240,452.433 747.297,452.870 C 747.710,452.457 746.603,447.476 745.914,446.647 C 745.608,446.278 745.514,445.819 745.706,445.627 C 746.225,445.108 746.904,446.452 747.484,449.149 C 748.427,453.532 747.944,455.373 746.287,453.716" stroke="#FFFEE3" fill="#FFFEE3" stroke-width="1" />
  <path id="63" d="M 759.819,453.750 C 759.977,453.337 760.284,453 760.501,453 C 760.718,453 761.595,451.911 762.448,450.581 C 763.983,448.188 764.365,446.348 763.581,445.113 C 763.096,444.349 761.845,445.539 761.058,447.510 C 760.635,448.570 760.559,448.604 760.534,447.750 C 760.487,446.185 762.395,443.407 763.389,443.596 C 764.034,443.718 764.288,444.360 764.404,446.153 C 764.530,448.127 764.277,449.004 762.963,451.149 C 761.435,453.642 760.669,454.476 759.890,454.493 C 759.693,454.497 759.660,454.163 759.819,453.750" stroke="#FFFEE3" fill="#FFFEE3" stroke-width="1" />
  <path id="28" d="M 745.351,451.738 C 742.676,449.384 741.783,445.074 743.809,444.296 C 744.686,443.961 746.145,444.861 745.753,445.496 C 745.622,445.707 745.828,446.525 746.211,447.315 C 747.074,449.099 747.735,453.005 747.169,452.984 C 746.938,452.976 746.120,452.414 745.351,451.738" stroke="#FFFFFF" fill="#FFFFFF" stroke-width="1" />
  </g><g id="leaf 2"><path id="3" d="M 251.261,418.017 C 250.793,417.261 256.427,408.389 260.172,403.983 C 263.752,399.771 263.892,399.094 260.700,401.424 C 257.990,403.403 254.657,407.099 251.731,411.373 C 250.366,413.365 249.082,414.996 248.875,414.998 C 248.213,415.002 248.475,408.809 249.266,405.730 C 250.814,399.709 255.632,394.170 261.904,391.200 C 264.491,389.975 270.840,388.408 275.625,387.814 C 275.625,387.814 278,387.519 278,387.519 C 278,387.519 277.991,391.385 277.991,391.385 C 277.960,405.351 270.634,415.192 258.396,417.708 C 253.990,418.613 251.690,418.713 251.261,418.017" stroke="#1C843B" fill="#1C843B" stroke-width="1" />
  </g><g id="leaf 1"><path id="3" d="M 233.609,417.933 C 230.201,416.623 225.605,412.373 223.858,408.916 C 222.279,405.789 220.280,398.295 220.720,397.149 C 221.166,395.988 228.316,396.568 232.365,398.094 C 239.951,400.952 245,407.290 245,413.955 C 245,413.955 245,416.233 245,416.233 C 245,416.233 241.274,412.241 241.274,412.241 C 238.059,408.796 237.546,408.416 237.524,409.466 C 237.511,410.134 238.588,412.272 239.917,414.216 C 241.247,416.159 242.498,418.031 242.697,418.375 C 243.314,419.440 236.694,419.118 233.609,417.933" stroke="#1C843B" fill="#1C843B" stroke-width="1" />
  <path id="62" d="M 239.901,419.038 C 239.901,419.038 243.053,418.750 243.053,418.750 C 243.053,418.750 240.286,414.750 240.286,414.750 C 238.764,412.550 237.515,410.216 238.712,410.061 C 238.560,410.308 239.125,411.531 239.968,412.779 C 240.810,414.029 241.505,415.207 241.511,415.400 C 241.517,415.592 241.962,416.312 242.500,417 C 244.185,419.154 243.835,419.509 240.125,419.413 C 240.125,419.413 236.750,419.327 236.750,419.327 C 236.750,419.327 239.901,419.038 239.901,419.038" stroke="#F3F7EE" fill="#F3F7EE" stroke-width="1" />
  <path id="62" d="M 227.345,414.979 C 223.673,411.747 221.257,406.731 220.024,399.776 C 219.429,396.417 219.650,395.984 222.061,395.795 C 228.386,395.298 236.338,397.971 240.423,401.966 C 243.195,404.678 245.512,409.582 245.866,413.490 C 246.090,415.968 245.996,416.533 245.312,416.796 C 244.335,417.170 243,416.197 245,413.916 C 245,404.942 236.380,397.437 225.160,396.645 C 220.085,396.287 220.020,396.382 221.463,402.097 C 222.916,407.852 224.700,411.115 228.131,414.291 C 231.498,417.409 230.800,418.021 227.345,414.979" stroke="#F3F7EE" fill="#F3F7EE" stroke-width="1" />
  </g></svg>